<svg xmlns="http://www.w3.org/2000/svg" height="31" fill="none" viewBox="0 0 160 31" class="css-1ugdsdy e18yuhnc3"><path fill-rule="evenodd" d="M21.78 15.457l7.524-8.027a4.403 4.403 0 00-.197-6.224l-.02-.018a4.448 4.448 0 00-6.268.215L12.472 12.444a4.403 4.403 0 000 6.026L22.82 29.511a4.448 4.448 0 006.269.215 4.403 4.403 0 00.233-6.222l-.017-.02-7.524-8.027z" clip-rule="evenodd" opacity="0.4" class="css-77azeg e18yuhnc1"></path><path fill-rule="evenodd" d="M8.716 15.457L1.193 7.43a4.403 4.403 0 01.197-6.224l.019-.018a4.448 4.448 0 016.268.215l10.347 11.041a4.403 4.403 0 010 6.026L7.677 29.511a4.448 4.448 0 01-6.268.215 4.403 4.403 0 01-.216-6.241l7.523-8.028z" clip-rule="evenodd" class="css-77azeg e18yuhnc1"></path><path fill-rule="evenodd" d="M145.519 12.151c0 .413.274.748.822 1.007.548.258 1.216.485 2.001.681.801.2 1.589.45 2.36.744.786.3 1.453.8 2.001 1.503.548.702.823 1.579.823 2.633 0 1.59-.595 2.813-1.785 3.671-1.19.857-2.674 1.285-4.453 1.285-3.187 0-5.359-1.228-6.517-3.686l3.476-1.952c.454 1.343 1.468 2.014 3.041 2.014 1.427 0 2.141-.444 2.141-1.332 0-.413-.274-.748-.822-1.007-.549-.258-1.216-.49-2.002-.697-.8-.211-1.588-.47-2.359-.775a4.832 4.832 0 01-2.001-1.471c-.549-.671-.823-1.512-.823-2.525 0-1.529.564-2.73 1.691-3.61 1.128-.877 2.53-1.315 4.206-1.315 1.262 0 2.41.283 3.444.852a6.226 6.226 0 012.452 2.43l-3.414 1.86c-.496-1.053-1.324-1.58-2.482-1.58-.518 0-.947.113-1.288.34-.342.227-.512.538-.512.93zm-17.565 6.506c.807.805 1.831 1.209 3.072 1.209 1.242 0 2.271-.41 3.088-1.225.817-.816 1.225-1.864 1.225-3.144s-.408-2.329-1.225-3.145c-.817-.815-1.846-1.223-3.088-1.223-1.241 0-2.265.408-3.072 1.223-.808.816-1.21 1.864-1.21 3.145 0 1.28.402 2.334 1.21 3.16zm3.817-11.338c2.09 0 3.874.79 5.353 2.37 1.479 1.58 2.22 3.515 2.22 5.808 0 2.292-.74 4.229-2.22 5.808-1.478 1.58-3.263 2.37-5.353 2.37-2.172 0-3.848-.754-5.027-2.26v1.827h-4.004V1.556h4.004V9.58c1.179-1.508 2.855-2.261 5.027-2.261zM107.72 18.657c.807.805 1.83 1.209 3.073 1.209 1.241 0 2.27-.41 3.087-1.225.818-.816 1.226-1.864 1.226-3.144s-.408-2.329-1.225-3.145c-.818-.815-1.847-1.223-3.088-1.223-1.242 0-2.266.408-3.073 1.223-.806.816-1.21 1.864-1.21 3.145 0 1.28.404 2.334 1.21 3.16zm7.386-10.905h4.004v15.49h-4.004v-1.828c-1.2 1.507-2.886 2.261-5.058 2.261-2.07 0-3.843-.79-5.322-2.37-1.48-1.579-2.219-3.516-2.219-5.808 0-2.293.739-4.229 2.218-5.809s3.253-2.37 5.323-2.37c2.172 0 3.858.754 5.058 2.262V7.752zm-19.458 15.49h4.003V.627h-4.003v22.615zm-6.175-15.49h4.282l-5.647 15.49c-.808 2.23-1.878 3.847-3.213 4.848-1.334 1.002-2.994 1.45-4.98 1.347V25.72c1.075.02 1.929-.207 2.56-.681.63-.476 1.132-1.24 1.505-2.294L77.618 7.753h4.376l4.034 10.409 3.445-10.41zm-12.104 15.49h-4.624l-3.35-4.71-3.383 4.71h-4.625l5.68-7.9-5.431-7.59h4.624l3.134 4.369 3.134-4.369h4.593l-5.431 7.559 5.68 7.931zm-27.277-4.678c.806.805 1.81 1.208 3.01 1.208 1.2 0 2.203-.403 3.01-1.208.807-.805 1.21-1.828 1.21-3.067 0-1.24-.403-2.261-1.21-3.067-.807-.806-1.81-1.208-3.01-1.208-1.2 0-2.199.402-2.995 1.208-.797.806-1.195 1.828-1.195 3.067 0 1.24.393 2.262 1.18 3.067zm8.844 2.757c-1.593 1.57-3.538 2.354-5.835 2.354-2.296 0-4.236-.79-5.818-2.37-1.583-1.579-2.374-3.516-2.374-5.808 0-2.293.791-4.229 2.374-5.809 1.582-1.58 3.522-2.37 5.818-2.37 2.297 0 4.242.79 5.835 2.37s2.39 3.516 2.39 5.81c0 2.291-.797 4.233-2.39 5.822zM157.478 9.847h-.361v-.683h.361c.442 0 .442.252.442.335 0 .086 0 .348-.442.348zm.927-.348c0-.506-.355-.82-.927-.82h-.847v2.292h.486v-.639h.361c.021 0 .044 0 .067-.002l.467.64h.602l-.57-.78c.233-.144.361-.39.361-.691zm-.911 2.142a1.818 1.818 0 01-1.816-1.817c0-1 .815-1.816 1.816-1.816 1.002 0 1.817.815 1.817 1.816a1.819 1.819 0 01-1.817 1.817zm0-4.323a2.509 2.509 0 00-2.506 2.506 2.509 2.509 0 002.506 2.507A2.509 2.509 0 00160 9.824a2.509 2.509 0 00-2.506-2.506z" clip-rule="evenodd" class="css-1e98oqk e18yuhnc2"></path></svg>