<?xml version="1.0" encoding="UTF-8"?>
<svg id="Layer_2" xmlns="http://www.w3.org/2000/svg" viewBox="0 0 1080 167">
<defs><style>.cls-1{fill:none;}.cls-2{fill:#122130;}.cls-3{fill:#f44862;}</style></defs>
<g id="Layer_1-2">
<g id="Logo_dark_1080x167"><g>
<g>
<path class="cls-2" d="m357.51,84.79c13.89,2.56,20.84,8.85,20.84,20.98,0,14.11-11.7,21.93-29.68,21.93-10.53,0-20.69-1.9-27.05-5.04l1.97-15.35c6.95,2.92,16.45,4.9,23.62,4.9,9.14,0,13.01-1.9,13.01-6.07,0-3.73-3-5.56-11.19-7.02l-8.41-1.61c-13.53-2.34-20.11-9.21-20.11-20.84,0-13.09,12.14-22.08,30.78-22.08,8.77,0,17.47,1.61,23.76,4.39l-1.61,15.28c-5.12-2.19-14.48-3.95-21.2-3.95-9.21,0-13.67,2.19-13.67,6.36,0,3.44,3.07,5.19,11.48,6.73l7.46,1.39Z"/>
<path class="cls-2" d="m454.9,67.02c4.97-7.46,13.89-12.43,24.35-12.43,16.08,0,27.56,10.46,27.56,27.56v44.09h-18.79v-39.26c0-9.72-6-14.99-14.04-14.99s-15.43,5.04-15.43,14.55v39.7h-18.79v-39.26c0-9.72-6.07-14.99-13.96-14.99s-15.35,5.26-15.35,14.99v39.26h-18.79V56.06h17.84l.37,8.12c3.58-4.9,11.19-9.58,21.49-9.58s19.45,4.46,23.54,12.43Z"/>
<path class="cls-2" d="m520.04,91c0-21.28,14.55-36.41,33.85-36.41,10.89,0,18.28,4.17,22.88,9.94l.37-8.48h18.35v70.19h-18.35l-.37-8.48c-4.61,5.85-11.99,9.94-22.88,9.94-19.3,0-33.85-15.43-33.85-36.7Zm37.51-19.67c-11.26,0-18.86,8.48-18.86,19.67s7.6,20.03,18.86,20.03,19.16-8.77,19.16-20.03-7.97-19.67-19.16-19.67Z"/>
<path class="cls-2" d="m631.68,65.63c3.58-7.31,10.38-11.04,18.28-11.04,4.17,0,7.68,1.1,9.14,1.61l-1.46,16.74c-1.9-.66-4.97-1.61-8.7-1.61-8.26,0-16.96,4.46-16.96,18.94v35.97h-18.79V56.06h18.13l.37,9.58Z"/>
<path class="cls-2" d="m694.27,71.63v28.88c0,7.31,4.09,10.53,10.38,10.53,3.51,0,7.97-.58,11.92-1.68l1.75,15.57c-4.31,1.68-11.26,2.78-16.96,2.78-15.43,0-25.81-7.97-25.81-24.49v-31.58h-11.84v-15.57h11.92v-22.52h18.2v22.52h20.33v15.57h-19.89Z"/>
<path class="cls-2" d="m724.32,91.08c0-21.35,14.11-36.48,34-36.48,11.26,0,18.5,4.09,23.18,9.94V23.23h18.42v103.02h-18.42l-.37-7.46c-4.68,5.41-12.5,8.92-22.81,8.92-19.89,0-34-15.43-34-36.63Zm37.87-19.67c-11.19,0-19.01,8.26-19.01,19.59s7.82,19.89,19.01,19.89,19.08-8.77,19.08-19.89-8.04-19.59-19.08-19.59Z"/>
<path class="cls-2" d="m813.81,91c0-21.28,14.55-36.41,33.85-36.41,10.89,0,18.28,4.17,22.88,9.94l.37-8.48h18.35v70.19h-18.35l-.37-8.48c-4.61,5.85-11.99,9.94-22.88,9.94-19.3,0-33.85-15.43-33.85-36.7Zm37.51-19.67c-11.26,0-18.86,8.48-18.86,19.67s7.6,20.03,18.86,20.03,19.16-8.77,19.16-20.03-7.97-19.67-19.16-19.67Z"/>
<path class="cls-2" d="m905.56,33.54c0-6.36,4.39-10.82,10.75-10.82s10.82,4.39,10.82,10.82-4.46,10.75-10.82,10.75-10.75-4.39-10.75-10.75Zm1.39,92.71V56.06h18.79v70.19h-18.79Z"/>
<path class="cls-2" d="m962.15,126.24h-18.72V23.3h18.72v102.94Z"/>
<path class="cls-2" d="m978.45,33.54c0-6.36,4.39-10.82,10.75-10.82s10.82,4.39,10.82,10.82-4.46,10.75-10.82,10.75-10.75-4.39-10.75-10.75Zm1.39,92.71V56.06h18.79v70.19h-18.79Z"/></g>
<g><path class="cls-3" d="m79.98,137.97V44.47c0-4.3,3.4-7.7,7.7-7.7,1.7,0,2.6,0,4.3.9l36.9,23.2c2.6,1.7,3.4,3.4,3.4,6v47.2c0,2.6-1.7,5.1-3.4,6l-36.9,23.2c-.9.9-2.6.9-4.3.9-4.3.7-7.7-1.9-7.7-6.2Z"/><g id="Logo"><path id="Union_55" class="cls-3" d="m79.98,137.74V44.24c0-4.3,3.4-7.7,7.7-7.7,1.7,0,2.6,0,4.3.9l36.9,23.2c2.6,1.7,3.4,3.4,3.4,6v46.3c0,2.6-1.7,5.1-3.4,6l-36.9,23.2c-.9.9-2.6.9-4.3.9-4.3,3.3-7.7-1-7.7-5.3Zm85.7-6.9V51.14c0-4.3,3.4-7.7,7.7-7.7,1.7,0,3.4.9,5.1,1.7l19.7,17.2c1.7,1.7,2.6,3.4,2.6,5.1v46.3c0,1.7-.9,4.3-2.6,5.1l-19.7,17.2c-3.4,2.6-7.7,2.6-10.3-.9-1.6-.8-2.5-1.7-2.5-4.3h0Zm67.8-6V58.84c0-4.3,3.4-7.7,7.7-7.7,1.7,0,4.3.9,5.1,2.6l9.4,10.3c1.7,1.7,2.6,3.4,2.6,5.1v46.3c0,1.7-.9,4.3-2.6,5.1l-9.4,10.3c-2.6,2.6-7.7,3.4-10.3,0-1.6-1.7-2.5-5.1-2.5-6Z"/></g></g></g><rect class="cls-1" width="1080" height="167"/></g></g></svg>