<svg width="780" height="501" xmlns="http://www.w3.org/2000/svg" data-name="Layer 1">
 <defs>
  <style>.cls-213{fill:#fff}.cls-313{fill:#009cde}</style>
 </defs>
 <g>
  <title>background</title>
  <rect fill="none" id="canvas_background" height="763" width="1662" y="-1" x="-1"/>
 </g>
 <g>
  <title>Layer 1</title>
  <path id="svg_1" fill="#003087" d="m724,0l-670,0a55.06,55.06 0 0 0 -55,55l0,391a55.06,55.06 0 0 0 55,55l670,0a55.06,55.06 0 0 0 55,-55l0,-391a55.06,55.06 0 0 0 -55,-55z"/>
  <g stroke="null" id="svg_8">
   <path stroke="null" id="svg_2" d="m138.177726,155.634908q-13.9396,-10.434164 -36.393289,-10.434164l-57.945003,0q-6.833137,0 -7.598449,7.452974l-23.560657,161.178019a4.837861,5.276706 0 0 0 1.079636,4.352537a4.441539,4.844433 0 0 0 3.621563,1.967585l27.523876,0q7.243125,0 7.967438,-7.452974l6.518813,-43.450839a7.038131,7.676563 0 0 1 2.541927,-5.142552a11.165346,12.17816 0 0 1 5.46651,-2.578729a37.85558,41.289477 0 0 1 6.16349,-0.581332q2.89725,0 6.833137,0.387555t5.070188,0.387555q31.145439,0 48.897929,-19.154144t17.766157,-53.1248q-0.013666,-23.342715 -13.953266,-33.806691zm-29.874476,48.384708q-1.817614,13.83272 -9.416063,18.170351t-21.729376,4.337631l-11.95799,0.402461l6.16349,-42.273269a4.332209,4.725186 0 0 1 4.701198,-4.337631l6.833137,0q14.472584,0 21.005064,4.471784t4.40054,19.228673z" class="cls-213"/>
   <path stroke="null" id="svg_3" d="m749.67517,145.156027l-26.799564,0a4.332209,4.725186 0 0 0 -4.701198,4.352537l-23.546991,164.323174l-0.368989,0.790015a5.111187,5.574825 0 0 0 1.448625,3.756299a4.646533,5.068022 0 0 0 3.621563,1.773808l23.91598,0q6.833137,0 7.612115,-7.452974l23.533324,-161.565574l0,-0.387555q0,-5.574825 -4.714865,-5.589731z" class="cls-313"/>
   <path stroke="null" id="svg_4" d="m425.866466,208.759708a5.138519,5.604637 0 0 0 -1.366627,-3.756299a4.304876,4.695374 0 0 0 -3.26624,-1.773808l-27.920198,0a7.66678,8.362237 0 0 0 -6.518813,3.950076l-38.388565,61.62119l-15.934876,-59.251145a7.612115,8.302613 0 0 0 -7.967438,-6.320122l-27.100222,0a4.277544,4.665562 0 0 0 -3.252573,1.773808a5.111187,5.574825 0 0 0 -1.448625,3.756299q0,0.790015 7.065464,23.312903t15.210563,48.593392q8.199765,26.070504 8.514089,27.650534q-29.696814,44.240855 -29.696814,47.400916q0,5.142552 4.701198,5.142552l27.892866,0a7.66678,8.362237 0 0 0 6.518813,-3.950076l92.356682,-145.362808a3.525899,3.845735 0 0 0 0.601316,-2.787412z" class="cls-213"/>
   <path stroke="null" id="svg_5" d="m685.525678,203.229601l-27.469211,0q-5.070188,0 -6.149823,13.042705q-9.429729,-15.785399 -34.411679,-15.800305q-26.075251,0 -44.360726,21.330412a65.14713,71.056656 0 0 0 -18.285475,50.173422q0,23.312903 12.490975,37.130717t33.45504,13.817814a57.302688,62.500641 0 0 0 21.360387,-4.740092a42.570444,46.432029 0 0 0 17.028178,-12.640244a31.036109,33.851409 0 0 1 -0.724313,3.547616a19.652102,21.434754 0 0 0 -0.724313,4.740092q0,6.335028 4.714865,6.320122l24.995616,0q6.833137,0 7.967438,-7.452974l14.85524,-103.104445a4.87886,5.321424 0 0 0 -1.093302,-4.352537a4.468872,4.874245 0 0 0 -3.648895,-2.012303zm-47.257977,77.823956a30.653453,33.434042 0 0 1 -22.276027,9.867738q-10.509365,0 -17.028178,-6.320122t-6.464148,-17.43996a31.10444,33.925938 0 0 1 9.06074,-24.68425a30.175134,32.912334 0 0 1 22.467355,-10.016797a24.380633,26.592212 0 0 1 16.83685,6.513899q6.696474,6.513899 6.696474,17.976574a29.765145,32.465155 0 0 1 -9.238401,24.102918l-0.054665,0z" class="cls-313"/>
   <path stroke="null" id="svg_6" d="m274.170821,203.229601l-27.523876,0q-5.083854,0 -6.16349,13.042705q-9.785052,-15.785399 -34.411679,-15.800305q-26.075251,0 -44.360726,21.330412a65.14713,71.056656 0 0 0 -18.285475,50.173422q0,23.312903 12.490975,37.130717t33.523371,13.817814a56.482712,61.606284 0 0 0 21.005064,-4.740092a45.74102,49.890209 0 0 0 17.383501,-12.640244a24.462631,26.681647 0 0 0 -1.448625,8.287707q0,6.335028 4.701198,6.320122l24.981949,0q6.833137,0 7.967438,-7.452974l14.841574,-103.104445a4.87886,5.321424 0 0 0 -1.079636,-4.352537a4.468872,4.874245 0 0 0 -3.621563,-2.012303zm-47.257977,78.017733a31.432431,34.283681 0 0 1 -22.63135,9.67396q-10.509365,0 -16.83685,-6.320122t-6.354818,-17.43996a31.090774,33.911032 0 0 1 9.06074,-24.68425a30.175134,32.912334 0 0 1 22.453689,-10.076421a24.380633,26.592212 0 0 1 16.83685,6.513899q6.696474,6.513899 6.696474,17.976574a29.573818,32.256472 0 0 1 -9.238401,24.35632l0.013666,0z" class="cls-213"/>
   <path stroke="null" id="svg_7" d="m549.587248,155.634908q-13.9396,-10.434164 -36.393289,-10.434164l-57.58968,0q-7.243125,0 -7.967438,7.452974l-23.533324,161.178019a4.837861,5.276706 0 0 0 1.079636,4.352537a4.441539,4.844433 0 0 0 3.621563,1.967585l29.696814,0q4.345875,0 5.7945,-5.127646l6.518813,-45.820885a7.038131,7.676563 0 0 1 2.528261,-5.142552a11.165346,12.17816 0 0 1 5.46651,-2.578729a37.841914,41.274571 0 0 1 6.16349,-0.581332q2.89725,0 6.833137,0.387555c2.651257,0.268307 4.345875,0.387555 5.070188,0.387555q31.145439,0 48.897929,-19.154144t17.766157,-53.1248q-0.013666,-23.297997 -13.953266,-33.761973zm-37.117601,64.975029q-7.967438,5.962379 -23.902314,5.962379l-11.589001,0.402461l6.16349,-42.273269a4.332209,4.725186 0 0 1 4.701198,-4.337631l6.518813,0a87.710149,95.666376 0 0 1 12.682303,0.790015a17.943818,19.57151 0 0 1 9.047074,4.933869q4.345875,4.143854 4.345875,12.044006q0,16.545603 -7.967438,22.47817z" class="cls-313"/>
  </g>
 </g>
</svg>