<svg width="300" height="194" xmlns="http://www.w3.org/2000/svg">

 <g>
  <title>Layer 1</title>
  <g stroke="null" id="svg_1" fill-rule="evenodd" fill="none">
   <path stroke="null" id="svg_2" fill="#3F3B60" d="m271.38532,192.99987l-242.77066,0a27.52527,25.33482 0 0 1 -27.61467,-25.26168l0,-141.47639a27.52527,25.33482 0 0 1 27.61467,-25.26168l242.77066,0a27.52527,25.33482 0 0 1 27.61467,25.26168l0,141.47639a27.52527,25.33482 0 0 1 -27.61467,25.26168"/>
   <g stroke="null" id="svg_3" fill="#FFF">
    <path stroke="null" id="svg_4" d="m40.73333,92.42857l9.93333,0l0,45.71423l-9.93333,0l0,-45.71423zm19.86667,0l9.93333,0l0,45.71423l-9.93333,0l0,-45.71423zm19.86667,0l9.93333,0l0,45.71423l-9.93333,0l0,-45.71423z"/>
    <path stroke="null" id="svg_5" d="m30.8,138.1428l0,-9.14285l69.53333,0l0,9.14285l-69.53333,0zm0,-45.71423l0,-9.14285l34.76667,-27.42854l34.76667,27.42854l0,9.14285l-69.53333,0z"/>
   </g>
   <path stroke="null" id="svg_6" fill-rule="nonzero" fill="#FFF" d="m123.39853,92.42857l0,-39.00338l15.21787,0c5.46333,0 9.60553,0.92343 12.44647,2.76114c2.84093,1.83771 4.27133,4.50742 4.27133,8.00913c0,2.01143 -0.51653,3.74857 -1.5198,5.17485a8.8208,8.11885 0 0 1 -4.45013,3.15428a8.93007,8.21942 0 0 1 5.08587,2.99885a9.43667,8.6857 0 0 1 1.77807,5.35771c0,3.82171 -1.3112,6.69256 -3.94353,8.61256c-2.63233,1.92 -6.5262,2.89828 -11.6816,2.93485l-17.20453,0zm10.2214,-16.57598l0,9.34399l6.68513,0c1.8476,0 3.26807,-0.384 4.25147,-1.16114c0.99333,-0.77714 1.49,-1.87428 1.49,-3.29142c0,-3.24571 -1.7582,-4.88228 -5.26467,-4.89142l-7.16193,0zm0,-6.16228l5.32427,0c2.22507,-0.01829 3.8144,-0.39314 4.768,-1.12457c0.9536,-0.73143 1.4304,-1.81943 1.4304,-3.24571c0,-1.64571 -0.51653,-2.82514 -1.5496,-3.54742c-1.02313,-0.73143 -2.682,-1.088 -4.96667,-1.088l-5.0064,0l0,9.0057zm52.28906,15.45141l-13.99607,0l-2.4436,7.28685l-10.91673,0l15.54567,-39.00338l9.60553,0l15.65493,39.00338l-10.97633,0l-2.4734,-7.28685zm-11.55247,-7.25942l9.10887,0l-4.56933,-13.53141l-4.53953,13.53141zm63.474,14.54627l-10.1618,0l-15.00927,-24.26511l0,24.26511l-10.2214,0l0,-39.00338l10.2214,0l14.97947,24.27425l0,-24.27425l10.1916,0l0,39.00338zm20.86,-14.51884l-4.18193,4.23314l0,10.2857l-10.2214,0l0,-39.00338l10.2214,0l0,17.19769l3.5462,-4.95542l9.13867,-12.24227l12.62527,0l-14.31393,17.25255l14.31393,21.75083l-12.0988,0l-9.0294,-14.51884zm-102.46233,54.83879l4.86733,-24.45711l10.12207,0l-8.9996,38.99424l-10.58893,0l-5.67193,-22.2354l-5.56267,22.2354l-10.55913,0l-9.01947,-39.00338l10.15187,0l4.86733,24.45711l5.811,-24.45711l8.6718,0l5.91033,24.45711l0,0.00914zm29.8596,14.53712l-10.1916,0l0,-39.00338l10.1916,0l0,39.00338zm22.84667,-13.76913l-5.53287,0l0,13.76913l-10.21147,0l0,-39.00338l16.66813,0c5.02627,0 8.95987,1.03314 11.79087,3.08114c2.831,2.05714 4.25147,4.95542 4.25147,8.70399c0,2.71543 -0.596,4.96456 -1.788,6.75656c-1.192,1.78285 -3.0694,3.22742 -5.61233,4.33371l8.8506,15.72569l0,0.40229l-10.9366,0l-7.4798,-13.76913zm-5.53287,-7.25942l6.45667,0c1.94693,0 3.40713,-0.46629 4.3806,-1.408c0.9834,-0.93257 1.47013,-2.24 1.47013,-3.92228c0,-1.67314 -0.49667,-2.98971 -1.49,-3.94971c-0.9834,-0.95086 -2.43367,-1.43543 -4.36073,-1.43543l-6.45667,0l0,10.71541zm54.94126,4.49828l-16.0622,0l0,9.29827l18.97267,0l0,7.23199l-29.18413,0l0,-39.00338l29.24373,0l0,7.25942l-19.03227,0l0,8.22856l16.0622,0l0,6.98513z"/>
  </g>
 </g>
</svg>