<svg width="780" height="501" xmlns="http://www.w3.org/2000/svg" data-name="Layer 1">
 <g>
  <title>Layer 1</title>
  <path d="m725,0l-670,0a55.06,55.06 0 0 0 -55,55l0,391a55.06,55.06 0 0 0 55,55l670,0a55.06,55.06 0 0 0 55,-55l0,-391a55.06,55.06 0 0 0 -55,-55z" fill="#003087" id="svg_1"/>
  <path class="cls-213" d="m210.49,185.18q-10.2,-7 -26.63,-7l-42.4,0q-5,0 -5.56,5l-17.24,108.13a3.54,3.54 0 0 0 0.79,2.92a3.25,3.25 0 0 0 2.65,1.32l20.14,0q5.3,0 5.83,-5l4.77,-29.15a5.15,5.15 0 0 1 1.86,-3.45a8.17,8.17 0 0 1 4,-1.73a27.7,27.7 0 0 1 4.51,-0.39q2.12,0 5,0.26t3.71,0.26q22.79,0 35.78,-12.85t13,-35.64q-0.01,-15.66 -10.21,-22.68zm-21.86,32.46q-1.33,9.28 -6.89,12.19t-15.9,2.91l-8.75,0.27l4.51,-28.36a3.17,3.17 0 0 1 3.44,-2.91l5,0q10.59,0 15.37,3t3.22,12.9z" fill="#fff" id="svg_2"/>
  <path class="cls-313" d="m657.94,178.15l-19.61,0a3.17,3.17 0 0 0 -3.44,2.92l-17.23,110.24l-0.27,0.53a3.74,3.74 0 0 0 1.06,2.52a3.4,3.4 0 0 0 2.65,1.19l17.5,0q5,0 5.57,-5l17.22,-108.39l0,-0.26q0,-3.74 -3.45,-3.75z" fill="#009cde" id="svg_3"/>
  <path class="cls-213" d="m421,220.82a3.76,3.76 0 0 0 -1,-2.52a3.15,3.15 0 0 0 -2.39,-1.19l-20.43,0a5.61,5.61 0 0 0 -4.77,2.65l-28.09,41.34l-11.66,-39.75a5.57,5.57 0 0 0 -5.83,-4.24l-19.83,0a3.13,3.13 0 0 0 -2.38,1.19a3.74,3.74 0 0 0 -1.06,2.52q0,0.53 5.17,15.64t11.13,32.6q6,17.49 6.23,18.55q-21.73,29.68 -21.73,31.8q0,3.45 3.44,3.45l20.41,0a5.61,5.61 0 0 0 4.77,-2.65l67.58,-97.52a2.58,2.58 0 0 0 0.44,-1.87z" fill="#fff" id="svg_4"/>
  <path class="cls-313" d="m611,217.11l-20.1,0q-3.71,0 -4.5,8.75q-6.9,-10.59 -25.18,-10.6q-19.08,0 -32.46,14.31a47.67,47.67 0 0 0 -13.38,33.66q0,15.64 9.14,24.91t24.48,9.27a41.93,41.93 0 0 0 15.63,-3.18a31.15,31.15 0 0 0 12.46,-8.48a22.71,22.71 0 0 1 -0.53,2.38a14.38,14.38 0 0 0 -0.53,3.18q0,4.25 3.45,4.24l18.29,0q5,0 5.83,-5l10.87,-69.17a3.57,3.57 0 0 0 -0.8,-2.92a3.27,3.27 0 0 0 -2.67,-1.35zm-34.58,52.21a22.43,22.43 0 0 1 -16.3,6.62q-7.69,0 -12.46,-4.24t-4.73,-11.7a22.76,22.76 0 0 1 6.63,-16.56a22.08,22.08 0 0 1 16.44,-6.72a17.84,17.84 0 0 1 12.32,4.37q4.9,4.37 4.9,12.06a21.78,21.78 0 0 1 -6.76,16.17l-0.04,0z" fill="#009cde" id="svg_5"/>
  <path class="cls-213" d="m310,217.11l-20.14,0q-3.72,0 -4.51,8.75q-7.16,-10.59 -25.18,-10.6q-19.08,0 -32.46,14.31a47.67,47.67 0 0 0 -13.38,33.66q0,15.64 9.14,24.91t24.53,9.27a41.33,41.33 0 0 0 15.37,-3.18a33.47,33.47 0 0 0 12.72,-8.48a17.9,17.9 0 0 0 -1.06,5.56q0,4.25 3.44,4.24l18.28,0q5,0 5.83,-5l10.86,-69.17a3.57,3.57 0 0 0 -0.79,-2.92a3.27,3.27 0 0 0 -2.65,-1.35zm-34.58,52.34a23,23 0 0 1 -16.56,6.49q-7.69,0 -12.32,-4.24t-4.65,-11.7a22.75,22.75 0 0 1 6.63,-16.56a22.08,22.08 0 0 1 16.43,-6.76a17.84,17.84 0 0 1 12.32,4.37q4.9,4.37 4.9,12.06a21.64,21.64 0 0 1 -6.76,16.34l0.01,0z" fill="#fff" id="svg_6"/>
  <path class="cls-313" d="m511.53,185.18q-10.2,-7 -26.63,-7l-42.14,0q-5.3,0 -5.83,5l-17.22,108.13a3.54,3.54 0 0 0 0.79,2.92a3.25,3.25 0 0 0 2.65,1.32l21.73,0q3.18,0 4.24,-3.44l4.77,-30.74a5.15,5.15 0 0 1 1.85,-3.45a8.17,8.17 0 0 1 4,-1.73a27.69,27.69 0 0 1 4.51,-0.39q2.12,0 5,0.26c1.94,0.18 3.18,0.26 3.71,0.26q22.79,0 35.78,-12.85t13,-35.64q-0.01,-15.63 -10.21,-22.65zm-27.16,43.59q-5.83,4 -17.49,4l-8.48,0.27l4.51,-28.36a3.17,3.17 0 0 1 3.44,-2.91l4.77,0a64.18,64.18 0 0 1 9.28,0.53a13.13,13.13 0 0 1 6.62,3.31q3.18,2.78 3.18,8.08q0,11.1 -5.83,15.08z" fill="#009cde" id="svg_7"/>
 </g>

</svg>