<?xml version="1.0" encoding="utf-8"?>
<!-- Generator: Adobe Illustrator 22.1.0, SVG Export Plug-In . SVG Version: 6.00 Build 0)  -->
<svg version="1.0" id="Layer_1" xmlns="http://www.w3.org/2000/svg" xmlns:xlink="http://www.w3.org/1999/xlink" x="0px" y="0px"
	 viewBox="0 0 2000 397" style="enable-background:new 0 0 2000 397;" xml:space="preserve">
<style type="text/css">
	.st0{fill:#D70D0D;}
	.st1{fill:#FFFFFF;}
	.st2{fill:#F00F0F;}
</style>
<g>
	<ellipse class="st0" cx="192.9" cy="198.7" rx="192.9" ry="198.4"/>
	<path class="st1" d="M74.4,185.8c0,0,0-2.7,0-3.7c0-0.9,0-2.1,0-3.7v-1.8v-8.9V155v-14.7v-10.1v-6.4v-4.7c0-2.6-0.9-5.2-4-5.2
		c-4.6,0-15.9,0-15.9,0v-5h25.9h17.7c5.8,0,11.6,0,17.4,0c6.7,0.3,11.9,1.5,15.6,2.7c5.8,1.8,9.2,4,10.7,4.6c2.4,1.5,4.3,3.1,5.5,4
		c1.5,1.5,3.4,3.4,5.2,5.5c0,0,2.1,3.1,4,5.8c5.8,9.5,5.2,21.4,5.2,21.4c0,2.1-0.9,15-10.1,24.4c-3.7,4-7.6,6.4-9.5,7.3
		c-3.7,2.1-7,3.1-9.8,4c-1.5,0.6-5.2,1.5-10.7,2.4c-15.7,2.7-38.5,1.8-38.5,1.8c-34,0-48-4.4-57.4-8.2c0,0,11.6,2.6,28.4,3.7
		c6.3,0.4,13.3,0.6,29,0c14.9-0.6,19.2-1.5,23.5-2.4c1.8-0.3,7.3-1.5,12.5-4c4-1.5,12.2-5.5,17.7-14c6.4-10.1,6.7-23.2,1.8-32.7
		c-0.9-1.8-3.1-5.8-7.6-9.5c-2.1-1.5-4.9-3.2-10.4-4.6c-9.8-2.5-19.7-3-26.2-0.9c-3.5,1.1-5.5,2.5-6.3,4.8c-0.4,1.3-0.4,5.3-0.4,5.9
		c0,14,0,38.2,0,47v4.3c0,0.3,0,1.6,0,1.6s0,0.3,0,0.6c0,0.6,0,0.6,0,0.6L74.4,185.8z"/>
	<path class="st1" d="M318.4,113.9c-2.4,0-3.5,1.8-3.5,4.1c0,4.6,0,20.1,0,20.1s0,54.6,0,82.1v21.4V263v12.5c0,0,0,0.9,0.6,1.5
		c0.6,0.6,1.2,0.3,1.5,0.3c4,0,7.9,0,12.2,0c0,1.8,0,3.7,0,5.8h-42.4v-5.8h3.4h7.6c0,0,0.9,0,1.5-0.9c0.6-0.6,0.3-1.5,0.3-1.5
		c0-42.1,0.6-86.1,0.6-128.2l-54,136.4c-19.5-46.1-37.8-92.2-57.4-138.3c0,42.4-0.9,85.2-0.9,127.6c0,1.2,0,2.1,0,2.7
		c0,0.6,0.3,1.2,0.6,1.2c0.3,0,0.3,0,0.6,0c0,0,5.8,0,6.1,0c2.1,0,4.6,0,6.7,0v6.7h-11.6c-9.5,0-16.2,0-25.6,0c0-2.1,0-4.6,0-6.7
		c2.1,0,2.1,0,4.6,0c1.5,0,10.7,0,10.7,0s0-155.5,0-157.3c0-2.3-1.1-5.2-4-5.2c-2.4,0-11.2,0-11.2,0v-5h28.4l56.2,144.4l55.2-144.4
		h26.6l0,5"/>
	<path class="st1" d="M59.3,280.6v-4.6c0,0,8.9,0,13,0c1.3,0,2.3-1,2.3-2.4c0-2.6,0-6.7,0-6.7c0-20.1,0-40,0-60.1c0-1.8,0-3.4,0-5.2
		c0-0.3,0-0.9,0-1.8c0-0.6,0-3.7,0-3.7l13.1,0.3v5.9v40c0,16.5,0,24.1,0,31.4c0,1.4,0.3,2.4,2,2.4c3.1,0,13.9,0,13.9,0v4.3
		C103.5,280.3,60.5,280.6,59.3,280.6z"/>
	<g>
		<path class="st2" d="M632.9,206.1c-7.1,0-7.4,0.5-7.4,7.4c0,27.6,16.1,51.1,45.4,51.1c9,0,16.7-2.7,25.1-13.4
			c2.7-0.8,4.6,0.8,4.9,3.3c-9,18.6-28.7,25.4-42.9,25.4c-17.8,0-31.7-7.7-39.6-18c-8.2-10.7-11.5-23.5-11.5-35.5
			c0-33.6,22.1-61.8,54.9-61.8c23.5,0,38.8,16.1,38.8,32.5c0,3.8-0.5,6-1.1,7.1c-0.8,1.6-4.6,1.9-16.1,1.9H632.9z M649.8,197.9
			c20.2,0,26.2-1.1,28.4-2.7c0.8-0.5,1.6-1.6,1.6-5.2c0-7.7-5.2-17.2-21-17.2c-16.1,0-30.1,14.8-30.3,23.8c0,0.5,0,1.4,1.9,1.4
			H649.8z"/>
		<path class="st2" d="M732.3,197.6c0-10.7,0-12-7.4-16.9l-2.5-1.6c-1.1-1.1-1.1-4.1,0.3-4.9c6.3-2.2,20.8-9.3,27.6-13.4
			c1.4,0.3,2.2,0.8,2.2,1.9v15.9c0,1.4,0.3,2.2,0.8,2.5c9.6-7.9,19.9-16.4,30.1-16.4c6.8,0,12.3,4.4,12.3,10.9
			c0,9-7.4,12.6-11.8,12.6c-2.7,0-4.1-0.8-6-1.9c-4.1-2.7-8.2-4.4-12-4.4c-4.4,0-7.7,2.5-9.8,5.5c-2.7,3.8-3.6,11.8-3.6,21v37.2
			c0,19.7,0.5,23,10.9,23.8l9.8,0.8c1.9,1.4,1.4,6-0.5,6.8c-12.8-0.5-20.8-0.8-30.3-0.8c-9.8,0-18,0.3-25.1,0.8
			c-1.9-0.8-2.5-5.5-0.5-6.8l5.2-0.8c10.1-1.6,10.4-4.1,10.4-23.8V197.6z"/>
		<path class="st2" d="M849.3,179.8c-4.6,0-4.6,0.5-4.6,7.9v57.7c0,19.7,0.5,23,10.4,23.8l9.8,0.8c1.9,1.4,1.4,6-0.5,6.8
			c-12.3-0.5-20.2-0.8-29.8-0.8c-9.8,0-18,0.3-26.2,0.8c-1.9-0.8-2.5-5.5-0.5-6.8l6.3-0.8c10.1-1.4,10.4-4.1,10.4-23.8v-57.7
			c0-7.4,0-7.9-5.5-7.9h-9.6c-1.6-1.1-1.9-3.6-0.8-5.2l11.8-5.7c2.2-1.1,4.1-2.7,4.1-5.5c0-15.9,1.9-32.8,8.5-48.1
			c6.8-15.6,22.1-34.7,49.2-34.7c14.5,0,26.8,6.6,26.8,16.4c0,5.5-5.2,9.8-10.4,9.8c-3,0-4.6-1.1-6.6-3.3c-5.2-6-12.8-12-21.9-12
			c-8.5,0-15.3,5.2-19.4,15c-4.9,12.6-6,32.5-6,46.2v7.9c0,7.4,0,7.7,4.6,7.7h31.2c3,2.7,1.1,10.4-1.9,11.5H849.3z"/>
		<path class="st2" d="M913.2,206.1c-7.1,0-7.4,0.5-7.4,7.4c0,27.6,16.1,51.1,45.4,51.1c9,0,16.7-2.7,25.1-13.4
			c2.7-0.8,4.6,0.8,4.9,3.3c-9,18.6-28.7,25.4-42.9,25.4c-17.8,0-31.7-7.7-39.6-18c-8.2-10.7-11.5-23.5-11.5-35.5
			c0-33.6,22.1-61.8,54.9-61.8c23.5,0,38.8,16.1,38.8,32.5c0,3.8-0.5,6-1.1,7.1c-0.8,1.6-4.6,1.9-16.1,1.9H913.2z M930.2,197.9
			c20.2,0,26.2-1.1,28.4-2.7c0.8-0.5,1.6-1.6,1.6-5.2c0-7.7-5.2-17.2-21-17.2c-16.1,0-30.1,14.8-30.3,23.8c0,0.5,0,1.4,1.9,1.4
			H930.2z"/>
		<path class="st2" d="M1086.2,169.2c2.2,1.9,4.1,6.3,4.1,10.9c0,4.9-2.7,10.1-6,10.1c-1.4,0-2.7-0.5-3.8-1.9
			c-6-7.4-16.1-14.5-27.3-14.5c-19.1,0-37.7,15-37.7,44c0,21.3,14.8,46.7,44,46.7c15.9,0,24-7.1,30.3-16.4c2.2-0.5,4.6,1.4,4.9,3.8
			c-9.3,20.2-29.8,27.9-45.6,27.9c-14.5,0-27.9-4.6-37.4-13.9c-9.6-9.3-15.9-22.7-15.9-40.4c0-29.5,20.8-60.9,66.1-60.9
			C1068.2,164.5,1078.9,165.9,1086.2,169.2z"/>
		<path class="st2" d="M1144.4,179.8c-4.6,0-4.9,0.8-4.9,6.6v51.1c0,15.8,1.9,30.3,20,30.3c2.7,0,5.2-0.5,7.4-1.4
			c2.5-0.8,6-3.8,6.8-3.8c2.2,0,3.3,3,2.7,4.6c-4.9,5.7-14.8,12.6-28.7,12.6c-23.5,0-28.4-13.1-28.4-29.5v-62.6
			c0-7.4-0.3-7.9-5.7-7.9h-7.7c-1.6-1.1-1.9-4.1-0.8-5.7c7.9-2.5,14.8-6,17.5-8.5c3.6-3.3,8.7-10.7,11.5-16.1
			c1.4-0.5,4.6-0.5,5.7,1.4v12.3c0,4.9,0.3,5.2,4.9,5.2h30.3c3.3,2.5,2.7,9.8,0.3,11.5H1144.4z"/>
		<path class="st2" d="M1353.8,203c6.3,12.8,12.3,25.4,18.9,37.4h0.5c7.4-12.8,14.2-27.1,21-41l25.7-52.2
			c12.3-24.9,20.2-39.9,20.8-52.5c9.3,0.8,15,0.8,20.5,0.8c6.8,0,15.9-0.3,24.3-0.8c1.6,1.1,1.6,5.7,0.3,6.8l-5.7,0.5
			c-17.2,1.6-19.4,6.8-19.1,26c0.5,29,0.8,79.5,3,118.9c0.8,13.7,0.5,21,13.4,22.1l8.7,0.8c1.6,1.6,1.4,5.7-0.5,6.8
			c-11.2-0.5-22.4-0.8-32.2-0.8c-9.6,0-21.9,0.3-33.1,0.8c-1.9-1.4-2.2-5.2-0.5-6.8l7.9-0.8c13.4-1.4,13.4-5.7,13.4-23.2l-0.8-114
			h-0.5c-1.9,3-12.3,24.9-17.8,35.5l-24.3,47.8c-12.3,24-24.6,49.7-29.5,62.3c-0.5,0.8-1.6,1.1-2.7,1.1c-0.5,0-1.9-0.3-2.5-1.1
			c-4.6-14.5-17.8-41.3-24-54.7l-24.6-52.7c-5.7-12.6-11.5-26.8-17.5-39.4h-0.5c-1.1,16.9-1.9,32.8-2.7,48.6
			c-0.8,16.7-1.9,41-1.9,64.2c0,20.2,1.6,24.6,12.3,25.4l10.4,0.8c1.9,1.6,1.6,6-0.3,6.8c-9.3-0.5-19.9-0.8-30.3-0.8
			c-8.7,0-18.6,0.3-27.9,0.8c-1.6-1.4-2.2-5.5-0.5-6.8l6-0.8c11.5-1.6,15.3-3.3,16.9-22.4c1.6-18,3-33.1,4.6-60.1
			c1.4-22.7,2.5-45.9,3-60.9c0.5-17.2-1.6-21.3-18.3-23.5l-4.4-0.5c-1.4-1.6-1.1-5.7,1.1-6.8c8.2,0.5,14.8,0.8,21.6,0.8
			c6.3,0,13.7,0,22.7-0.8c-1.1,10.7,5.7,27.6,14.2,45.1L1353.8,203z"/>
		<path class="st2" d="M1613.4,221.1c0,34.2-23.5,58.8-57.7,58.8c-31.4,0-56-22.1-56-56.3c0-34.4,26-59,58.2-59
			C1588.5,164.5,1613.4,187.5,1613.4,221.1z M1554.6,172.7c-18,0-31.4,17.2-31.4,47.3c0,24.9,11.2,51.7,35.3,51.7
			c24,0,31.4-25.1,31.4-46.2C1589.9,202.2,1580.6,172.7,1554.6,172.7z"/>
		<path class="st2" d="M1649.7,197.6c0-10.7,0-12-7.4-16.9l-2.5-1.6c-1.1-1.1-1.1-4.1,0.3-4.9c6.3-2.2,21.9-9.3,27.3-13.4
			c1.1,0,2.5,0.5,3,1.9c-0.5,6.3-0.5,10.4-0.5,12.8c0,1.6,1.1,3,3,3c11.5-7.1,24.3-13.9,38.3-13.9c22.7,0,32,15.6,32,33.9v47
			c0,19.7,0.5,22.4,10.4,23.8l6,0.8c1.9,1.4,1.4,6-0.5,6.8c-8.2-0.5-16.1-0.8-25.7-0.8c-9.8,0-18,0.3-25.4,0.8
			c-1.9-0.8-2.5-5.5-0.5-6.8l5.2-0.8c10.1-1.6,10.4-4.1,10.4-23.8v-40.7c0-15.6-7.1-27.1-25.7-27.1c-10.4,0-19.4,4.4-23.2,9.6
			c-3.6,4.6-4.1,8.5-4.1,16.4v41.8c0,19.7,0.5,22.1,10.4,23.8l4.9,0.8c1.9,1.4,1.4,6-0.5,6.8c-7.4-0.5-15.3-0.8-24.9-0.8
			c-9.8,0-18,0.3-25.7,0.8c-1.9-0.8-2.5-5.5-0.5-6.8l5.7-0.8c10.1-1.4,10.4-4.1,10.4-23.8V197.6z"/>
		<path class="st2" d="M1802,206.1c-7.1,0-7.4,0.5-7.4,7.4c0,27.6,16.1,51.1,45.4,51.1c9,0,16.7-2.7,25.1-13.4
			c2.7-0.8,4.6,0.8,4.9,3.3c-9,18.6-28.7,25.4-42.9,25.4c-17.8,0-31.7-7.7-39.6-18c-8.2-10.7-11.5-23.5-11.5-35.5
			c0-33.6,22.1-61.8,54.9-61.8c23.5,0,38.8,16.1,38.8,32.5c0,3.8-0.5,6-1.1,7.1c-0.8,1.6-4.6,1.9-16.1,1.9H1802z M1818.9,197.9
			c20.2,0,26.2-1.1,28.4-2.7c0.8-0.5,1.6-1.6,1.6-5.2c0-7.7-5.2-17.2-21-17.2c-16.1,0-30.1,14.8-30.3,23.8c0,0.5,0,1.4,1.9,1.4
			H1818.9z"/>
		<path class="st2" d="M1881.2,332.3c0-7.4,4.9-10.9,10.9-10.9h5.2c4.4,0,7.1-1.9,9-4.9c7.9-12.3,13.4-23.8,15.8-30.3
			c0.8-2.2,2.7-7.9,2.7-11.8c0-5.5-1.1-8.7-4.6-18.9L1899,197c-4.6-12.8-6.6-19.4-16.1-21.3l-6.8-1.4c-1.6-1.4-1.4-6,0.8-6.8
			c8.7,0.5,16.9,0.8,26,0.8c7.4,0,15-0.3,23.8-0.8c2.2,0.8,2.5,5.5,0.5,6.8l-6.8,1.4c-3.8,0.8-6,1.6-6,3.6c0,3.3,6.3,21,7.9,25.7
			l8.7,25.1c1.6,4.4,6.8,18.9,7.9,19.4c0.8-0.5,5.2-9,10.1-20.2l9.3-21.6c6-14.2,9.6-24.3,9.6-27.3c0-1.9-1.6-3.8-6.6-4.6l-8.5-1.4
			c-1.9-1.4-1.6-6,0.5-6.8c8.7,0.5,16.9,0.8,24,0.8c6.8,0,13.1-0.3,20.8-0.8c2.2,1.1,2.5,5.2,0.5,6.8l-4.6,0.8
			c-9,1.6-13.9,9.6-23.2,29l-15.3,31.4c-9,18.3-31.4,65.9-44.8,95.7c-4.6,10.4-11.2,12.8-17.5,12.8
			C1885.3,344.1,1881.2,339.1,1881.2,332.3z"/>
		<path class="st2" d="M547.9,92.5c-2.1,0-12.3,0-18.5,0c-0.1,0-0.2,0-0.3,0c-1.4,0-2.8,0-4.1,0c0,0,0,0,0,0l0,0
			c-20.6,0-36.4,0.4-49.9,2.2c-2.2,1.1-2.5,5.2-0.5,6.8l9.8,1.1c12.3,1.4,12.8,6,12.8,29.2v56.7c2.9,0,6.9-0.1,12.3-0.3
			c4.1-0.2,7.5-0.5,10.2-0.8v-76.6c0-8.7,0.3-9.8,14.8-9.8c28.4,0,44,17.2,44,43.7c0,17.7-5.9,31.5-21.1,39.6
			c-0.4,0.2-0.8,0.3-1.1,0.5c-6,3.1-12.4,4.6-14.5,5c-5,1.2-10,2.3-27.3,3.1c-18.2,0.8-26.3,0.5-33.7,0c-19.5-1.3-33-4.6-33-4.6
			c10.9,4.9,27.2,10.4,66.7,10.4c0,0,26.5,1.1,44.7-2.3c6.4-1.2,10.6-2.3,12.4-3.1c3.2-1.2,7.1-2.3,11.3-5c2.1-1.2,6.7-4.2,11-9.3
			c10.6-12,11.7-28.2,11.7-30.9C605.3,105.7,566.1,92.5,547.9,92.5z"/>
		<g>
			<path class="st2" d="M544.9,270l-7.4-0.8c-17.5-1.9-18-5.5-18-34.2v-32.5c-3.2,0.3-7.5,0.5-12.6,0.4c-4.3-0.1-7.5-0.3-9.8-0.4
				V235c0,28.7-0.5,32-16.4,34.2l-5.7,0.8c-1.6,1.6-1.1,6,0.5,6.8c12-0.5,21.9-0.8,33.3-0.8c10.9,0,19.9,0.3,35.5,0.8
				C546,276,546.5,271.4,544.9,270z"/>
		</g>
	</g>
</g>
</svg>
