<?xml version="1.0" encoding="UTF-8"?>
<svg xmlns="http://www.w3.org/2000/svg" version="1.2" viewBox="0 0 2607 702" width="2607" height="702">
  <title>848585_O4WJ6Y1-ai</title>
  <defs>
    <radialGradient id="g1" cx="0" cy="0" r="1" gradientUnits="userSpaceOnUse" gradientTransform="matrix(384.744,0,0,384.744,349.309,331.797)">
      <stop offset="0" stop-color="#10c465"></stop>
      <stop offset=".64" stop-color="#24fd8a"></stop>
      <stop offset=".643" stop-color="#24fc89"></stop>
      <stop offset=".99" stop-color="#0f4e28"></stop>
    </radialGradient>
    <linearGradient id="g2" x2="1" gradientUnits="userSpaceOnUse" gradientTransform="matrix(268.569,-163.987,53.682,87.917,34.556,401.818)">
      <stop offset="0" stop-color="#fff33e" stop-opacity="0"></stop>
      <stop offset="1" stop-color="#fffbcc" stop-opacity=".7"></stop>
    </linearGradient>
    <radialGradient id="g3" cx="0" cy="0" r="1" gradientUnits="userSpaceOnUse" gradientTransform="matrix(351.895,0,0,351.895,257.463,351.403)">
      <stop offset="0" stop-color="#10c465"></stop>
      <stop offset="1" stop-color="#0f4b26"></stop>
    </radialGradient>
    <radialGradient id="g4" cx="0" cy="0" r="1" gradientUnits="userSpaceOnUse" gradientTransform="matrix(356.858,0,0,356.858,250.669,375.759)">
      <stop offset="0" stop-color="#10c465"></stop>
      <stop offset="1" stop-color="#0f4b26"></stop>
    </radialGradient>
  </defs>
  <style>
		.s0 { fill: url(#g1) } 
		.s1 { fill: url(#g2) } 
		.s2 { fill: url(#g3) } 
		.s3 { fill: #000000 } 
		.s4 { fill: url(#g4) } 
	</style>
  <g id="Layer 1">
    <g id="&lt;Group&gt;">
      <g id="&lt;Group&gt;">
        <g id="&lt;Group&gt;">
          <path id="&lt;Path&gt;" class="s0" d="m614.2 246.8c-246.1 3.8-461.9 92.3-580.6 152.3 8.5 70.9 40.2 137.4 89.9 188.6 215.6-235.4 490.7-340.9 490.7-340.9z"></path>
          <path id="&lt;Path&gt;" class="s1" d="m126.2 518.1c-19.1-28.1-33.1-59.7-41-92.8 51.4-24.5 122.1-54.3 204.3-79.2q39.4-11.9 78.4-21.2c-72.6 46.7-159.6 111-241.7 193.2z"></path>
        </g>
        <path id="&lt;Path&gt;" class="s2" d="m675.6 293.6c-182.4 81.6-348 200.9-483 348.1 17 10 35.2 18.5 54.4 25.4 35.8 12.8 72.4 19 108.3 19.2 61.1-33 125.9-76.7 150.1-123 0 0-21.6 57.4-56.4 109.7 96.1-28.5 177.9-100.8 214.4-202.4 21.1-58.9 24.2-119.9 12.2-177z"></path>
        <path id="ResiProx" class="s3" aria-label="ResiProx" d="m1105.3 494l-68.4-100c35.6-13.2 60-41.6 60-86.8v-0.8c0-57.6-39.6-92.4-105.6-92.4h-128v280h61.6v-89.6h48.4l60 89.6zm-70.8-183.6c0 23.6-17.2 39.6-47.2 39.6h-62.4v-80.4h61.2c30 0 48.4 13.6 48.4 40zm307.6 82.4v-0.8c0-60.8-32.8-116.4-104.4-116.4-62.4 0-106 50.4-106 111.6v0.8c0 65.6 47.6 110.8 112 110.8 38.8 0 67.6-15.2 87.6-40l-34.8-30.8c-16.8 15.6-31.6 22-52 22-27.2 0-46.4-14.4-52.4-42h149.2c0.4-5.6 0.8-9.2 0.8-15.2zm-59.2-22.8h-91.6c4.8-27.6 21.2-45.6 46.4-45.6 25.6 0 41.6 18.4 45.2 45.6zm261.6 58.8v-0.8c0-39.2-34.8-53.6-64.8-63.6-23.2-8-43.6-13.6-43.6-25.6v-0.8c0-8.4 7.6-14.8 22.4-14.8 15.6 0 36.8 7.6 58 20l23.2-42c-23.2-15.6-52.8-24.8-80-24.8-43.2 0-78.4 24.4-78.4 68v0.8c0 41.6 34 55.6 64 64.4 23.6 7.2 44.4 11.6 44.4 24.8v0.8c0 9.6-8 16-25.6 16-20 0-44.4-8.8-67.6-25.6l-26 40c28.4 22.4 62 32.4 92 32.4 46.4 0 82-21.6 82-69.2zm108.8-172.8v-54h-64v54zm-1.6 238v-214.4h-60.8v214.4zm285.2-182.4v-0.8c0-57.2-40.4-96.8-107.2-96.8h-114.4v280h61.6v-84h46.8c62.8 0 113.2-33.6 113.2-98.4zm-62.4 1.2c0 24-18 42.4-48.8 42.4h-48.8v-85.6h47.6c30.8 0 50 14.8 50 42.4zm230.8 26.4v-63.6c-36-1.6-56 17.6-68.4 47.2v-43.2h-60.8v214.4h60.8v-79.2c0-51.2 24.8-75.6 65.2-75.6zm253.6 48v-0.8c0-61.6-49.2-110.8-115.6-110.8-66.8 0-116.4 50-116.4 111.6v0.8c0 61.6 49.2 110.8 115.6 110.8 66.8 0 116.4-50 116.4-111.6zm-60 0.8c0 31.6-20.8 58.4-55.6 58.4-33.6 0-56.4-27.6-56.4-59.2v-0.8c0-31.6 20.8-58.4 55.6-58.4 33.6 0 56.4 27.6 56.4 59.2zm287.2 106l-75.6-110 72.4-104.4h-63.6l-40.4 62.4-40-62.4h-65.2l72.4 105.6-75.2 108.8h63.6l43.2-66.8 43.2 66.8z"></path>
        <path id="&lt;Path&gt;" class="s4" d="m466.9 54.2c-110.5-39.6-228.2-15.9-313.6 52.4 69.2-22 123-21.6 123-21.6-105 38-177.3 96.2-206.8 122.8-7.3 13.7-13.6 28-19 42.9-8.7 24.2-14.3 48.8-17.1 73.2 185.2-95.8 397.2-139 605.4-126.1-37.2-64.4-96.5-116.5-171.9-143.6z"></path>
      </g>
      <g id="&lt;Group&gt;">
			</g>
      <g id="&lt;Group&gt;">
			</g>
    </g>
  </g>
</svg>
