<?xml version="1.0" encoding="UTF-8" standalone="no"?><!DOCTYPE svg PUBLIC "-//W3C//DTD SVG 1.1//EN" "http://www.w3.org/Graphics/SVG/1.1/DTD/svg11.dtd"><svg width="100%" height="100%" viewBox="0 0 5278 2473" version="1.1" xmlns="http://www.w3.org/2000/svg" xmlns:xlink="http://www.w3.org/1999/xlink" xml:space="preserve" xmlns:serif="http://www.serif.com/" style="fill-rule:evenodd;clip-rule:evenodd;stroke-linejoin:round;stroke-miterlimit:2;"><g id="Layer-9" serif:id="Layer 9"><path d="M1702.08,658.025c-121.412,-110.792 -242.483,-221.959 -363.746,-332.913c-74.704,-68.35 -149.425,-136.679 -224.304,-204.837c-26.817,-24.409 -57.946,-31.854 -92.546,-20.175c-42.579,14.371 -69.241,55.25 -69.275,105.65c-0.104,180.371 -0.041,360.737 -0.041,541.104l0,222.687c0,107.53 -0.467,215.059 0.175,322.584c0.429,72.275 65.445,122.987 128.579,101.466c22.466,-7.658 38.221,-24.708 55.041,-40.1c188.809,-172.745 377.45,-345.675 566.355,-518.32c54.729,-50.021 54.662,-127.05 -0.238,-177.146" style="fill:#fff;fill-rule:nonzero;"/><path d="M1702.31,835.171c-188.904,172.646 -377.542,345.575 -566.35,518.321c-16.825,15.392 -32.579,32.442 -55.042,40.1c-63.137,21.521 -128.154,-29.192 -128.583,-101.471c-0.638,-107.521 -0.171,-215.05 -0.175,-322.579l0,-222.688c0.004,-180.366 -0.063,-360.733 0.046,-541.104c0.029,-50.4 26.691,-91.279 69.275,-105.65c34.596,-11.679 65.725,-4.233 92.541,20.175c74.88,68.159 149.605,136.488 224.305,204.838c121.266,110.954 242.333,222.121 363.745,332.912c54.9,50.096 54.971,127.125 0.238,177.146m71.504,-240.367c-152.942,-142.958 -308.167,-283.483 -463.025,-424.383c-51.246,-46.621 -98.904,-97.592 -155.558,-137.8c-61.425,-43.592 -141.688,-42.5 -205.375,-2.671c-64.85,40.55 -91.992,103.246 -92.804,175.95c-2.005,179.671 -0.659,359.375 -0.659,539.067c-0.004,177.608 -0.337,355.217 0.2,532.825c0.167,53.833 13.029,104.142 48.492,146.804c40.642,48.896 94.667,70.6 155.9,68.304c43.821,-1.641 84.671,-18.512 118.375,-49.637c71.292,-65.846 143.325,-130.888 214.992,-196.325c111.091,-101.442 222.033,-203.046 333.245,-304.359c48.405,-44.095 95.642,-87.679 106.53,-158.179c11.466,-74.266 -6.588,-139.379 -60.313,-189.596" style="fill:#4189c6;fill-rule:nonzero;"/><path d="M630.507,1028.49c-0.254,-31.563 -13.871,-56.684 -43.512,-69.909c-29.409,-13.116 -53.017,-1.479 -74.967,19.354c-129.242,122.663 -258.967,244.821 -388.433,367.25c-46.338,43.825 -46.296,92.55 0,136.388c88.612,83.896 177.312,167.7 266,251.512c42.833,40.48 85.462,81.18 128.675,121.25c30.196,28 69.529,25.209 94.9,-6.058c13.241,-16.317 17.687,-35.421 17.65,-56.262c-0.225,-126.213 -0.113,-252.43 -0.113,-378.642l0,-162.279c-0.004,-74.2 0.4,-148.409 -0.2,-222.604" style="fill:#fff;fill-rule:nonzero;"/><path d="M630.709,1413.37c0,126.213 -0.113,252.429 0.112,378.642c0.038,20.842 -4.412,39.95 -17.65,56.262c-25.375,31.271 -64.704,34.063 -94.904,6.059c-43.208,-40.067 -85.837,-80.771 -128.671,-121.25c-88.687,-83.813 -177.387,-167.617 -266,-251.513c-46.295,-43.833 -46.341,-92.562 0,-136.383c129.467,-122.433 259.192,-244.588 388.434,-367.254c21.95,-20.829 45.554,-32.471 74.962,-19.35c29.646,13.221 43.263,38.341 43.517,69.904c0.596,74.2 0.196,148.404 0.2,222.608l0,162.275Zm91.596,-0.225c0,-125.55 0.196,-251.1 -0.134,-376.65c-0.083,-31.529 -6.116,-62.871 -21.237,-90.183c-51.371,-92.792 -168.413,-112.225 -245.842,-39.996c-133.829,124.846 -265.521,251.975 -399.421,376.742c-74.087,69.029 -74.483,192.087 0.342,260.929c82.129,75.554 162.354,153.187 243.433,229.887c50.871,48.121 101.584,96.413 152.742,144.225c62,57.938 147.892,61.375 211.317,8.592c42.046,-34.987 57.725,-82.8 58.329,-134.817c1.458,-126.225 0.471,-252.483 0.471,-378.729" style="fill:#1ab99a;fill-rule:nonzero;"/><path d="M954.818,1791.74c-11.134,-10.767 -21.984,-22.755 -39.53,-15.63c-18.195,7.392 -21.754,23.121 -21.662,41.013c0.304,57.546 0.112,115.1 0.117,172.646c0,58.937 0.087,117.871 -0.055,176.808c-0.041,16.433 4.321,30.354 20.367,37.658c16.383,7.455 27.442,-2.129 38.317,-12.654c57.275,-55.425 114.737,-110.662 172.033,-166.066c26.104,-25.242 25.929,-45.092 -0.512,-70.638c-56.321,-54.412 -112.775,-108.7 -169.075,-163.137" style="fill:#fff;fill-rule:nonzero;"/><path d="M1124.4,2025.52c-57.296,55.404 -114.758,110.642 -172.033,166.063c-10.875,10.529 -21.93,20.112 -38.313,12.658c-16.046,-7.304 -20.412,-21.225 -20.371,-37.662c0.142,-58.934 0.054,-117.871 0.054,-176.805c0,-57.55 0.188,-115.1 -0.112,-172.65c-0.096,-17.891 3.462,-33.616 21.658,-41.008c17.546,-7.125 28.396,4.863 39.529,15.629c56.305,54.438 112.755,108.721 169.075,163.138c26.442,25.546 26.617,45.391 0.513,70.637m72.183,-126.312c-60.962,-61.504 -123.546,-121.442 -186.462,-180.954c-58.479,-55.317 -150.121,-40.98 -188.15,23.558c-13.696,23.242 -19.017,49.104 -19.434,75.462c-0.9,57.53 -0.275,115.088 -0.275,172.63c0,58.237 -0.72,116.483 0.33,174.704c0.462,25.583 5.6,50.933 18.775,73.571c38.266,65.737 130.558,79.933 189.495,23.845c62.242,-59.225 124.33,-118.658 184.992,-179.491c50.283,-50.434 50.808,-132.796 0.729,-183.325" style="fill:#fbb217;fill-rule:nonzero;"/><path d="M1393.89,531.069c-52.417,0 -94.908,42.5 -94.908,94.921c0,52.425 42.491,94.925 94.908,94.925c52.417,0 94.908,-42.5 94.908,-94.925c0,-52.421 -42.491,-94.921 -94.908,-94.921" style="fill:#fcb215;fill-rule:nonzero;"/><path d="M5277.04,1810.87l0,113.537c-9.767,-1.221 -18.317,-1.221 -26.859,-1.221c-125.746,0 -203.879,76.913 -203.879,218.53l0,322.3l-117.2,0l0,-647.042l112.317,0l0,108.654c41.508,-75.692 122.083,-114.758 235.621,-114.758" style="fill:#566871;fill-rule:nonzero;"/><path d="M3177.96,1555.61c-44.733,0 -81,36.267 -81,81.008c0,44.746 36.267,81.017 81,81.017c44.738,0 81,-36.271 81,-81.017c0,-44.741 -36.262,-81.008 -81,-81.008" style="fill:#ff2c4b;fill-rule:nonzero;"/><path d="M1829.22,2472.76c-153.404,0 -306.687,-50.071 -391.125,-127.675l52.496,-110.663c80.546,71.542 213.075,117.65 338.629,117.65c162.821,0 256.204,-58.579 256.204,-160.725c0,-114.125 -128.441,-145.279 -264.425,-178.267c-167.987,-40.754 -358.387,-86.941 -358.387,-296.187c0,-141.017 102.867,-291.696 391.583,-291.696c123.163,0 245.592,33.529 327.929,89.75l-46.879,113.654c-84.341,-53.354 -184.05,-82.712 -281.05,-82.712c-157.666,0 -251.8,61.729 -251.8,165.129c0,114.479 129.088,145.725 265.75,178.808c167.367,40.513 357.063,86.434 357.063,292.709c0,81.729 -33.321,152.095 -96.363,203.479c-69.621,56.75 -173.233,86.746 -299.625,86.746" style="fill:#566871;fill-rule:nonzero;"/><path d="M2953.81,2091.66l0,372.354l-117.2,0l0,-358.92c0,-126.967 -63.488,-189.23 -174.58,-189.23c-124.525,0 -205.1,74.471 -205.1,214.863l0,333.287l-117.2,0l0,-822.52l117.2,-83.334l0,350.379c48.834,-62.266 129.409,-97.67 228.296,-97.67c157.484,0 268.584,90.345 268.584,280.791" style="fill:#566871;fill-rule:nonzero;"/><rect x="3122.29" y="1816.97" width="117.2" height="647.042" style="fill:#566871;"/><path d="M3644.8,1550.83c-137.955,0 -213.646,83.016 -213.646,208.762l0,57.375l-109.879,0l0,96.45l109.879,0l0,550.592l117.2,0l0,-550.592l109.658,0l0,-96.45l-112.1,0l0,-56.154c0,-74.475 35.404,-113.542 104.992,-113.542c34.183,0 65.925,12.209 90.337,30.525l35.409,-89.121c-32.967,-25.637 -81.796,-37.845 -131.85,-37.845" style="fill:#566871;fill-rule:nonzero;"/><path d="M4123.36,2341.93c-24.413,19.529 -57.379,30.521 -91.563,30.521c-64.704,0 -101.329,-39.067 -101.329,-108.655l0,-350.379l185.567,0l0,-96.446l-185.567,0l0,-141.616l-117.2,83.333l0,58.283l-73.475,0l0,96.446l73.475,0l0,355.263c0,130.629 74.471,202.658 205.104,202.658c52.492,0 106.209,-14.65 141.613,-45.171l-36.625,-84.237Z" style="fill:#566871;fill-rule:nonzero;"/><path d="M4288.16,2095.32l415.083,0c-12.208,-108.654 -94,-185.567 -207.537,-185.567c-112.321,0 -195.333,75.692 -207.546,185.567m524.958,84.238l-524.958,0c14.654,113.537 106.213,189.229 234.4,189.229c75.692,0 139.175,-25.638 186.788,-78.134l64.704,75.688c-58.6,68.367 -147.721,104.992 -255.154,104.992c-208.763,0 -347.938,-137.95 -347.938,-330.842c0,-191.671 137.954,-329.629 324.746,-329.629c186.783,0 319.854,134.296 319.854,333.291c0,9.763 -1.221,24.413 -2.442,35.405" style="fill:#566871;fill-rule:nonzero;"/></g></svg>